<?xml version="1.0" encoding="UTF-8"?> <svg xmlns="http://www.w3.org/2000/svg" id="Warstwa_1" data-name="Warstwa 1" viewBox="0 0 293.34 126.51"><defs><style> .cls-1 { fill: #010101; } .cls-1, .cls-2 { stroke-width: 0px; } .cls-2 { fill: #009fe3; } </style></defs><path class="cls-2" d="M278.39,98.98l-5.18,13.13h10.55l-5.36-13.13ZM284.69,115.13h-12.63l-4.12,10.74h-4.47l13.32-32.25h3.23l13.32,32.25h-4.57l-4.07-10.74Z"></path><polygon class="cls-2" points="213.56 93.62 236.97 93.62 236.97 96.74 217.58 96.74 217.58 107.77 235.87 107.77 235.87 110.9 217.58 110.9 217.58 125.87 213.56 125.87 213.56 93.62"></polygon><polygon class="cls-2" points="160.42 93.62 183.83 93.62 183.83 96.74 164.43 96.74 164.43 107.77 182.73 107.77 182.73 110.9 164.43 110.9 164.43 122.75 183.83 122.75 183.83 125.87 160.42 125.87 160.42 93.62"></polygon><path class="cls-2" d="M110.51,108.73h5.24c4.41,0,7.31-.92,8.72-2.77.71-.96,1.07-2.05,1.07-3.28,0-1.88-.81-3.33-2.44-4.36-1.61-1.05-4.06-1.57-7.34-1.57h-5.24v11.98ZM126.87,125.87l-10.9-13.98h-5.46v13.98h-4.02v-32.25h9.25c2.74,0,5.17.36,7.27,1.09,2.1.72,3.74,1.77,4.9,3.15,1.19,1.36,1.78,2.97,1.78,4.83,0,1.46-.38,2.81-1.14,4.05-.76,1.23-1.85,2.26-3.25,3.1-1.39.83-3.01,1.39-4.85,1.68l11.03,14.35h-4.6Z"></path><polygon class="cls-2" points="51.96 93.62 79.72 93.62 79.72 96.74 68.1 96.74 68.1 125.87 64.09 125.87 64.09 96.74 51.96 96.74 51.96 93.62"></polygon><path class="cls-2" d="M4.45,117.94c.24.87.76,1.73,1.58,2.57.83.84,1.86,1.53,3.08,2.06,1.22.53,2.52.8,3.91.8s2.82-.24,4.09-.73c1.29-.49,2.32-1.17,3.1-2.04s1.17-1.85,1.17-2.95c0-2.89-2.74-5.29-8.21-7.2l-1.73-.6c-1.36-.44-2.46-.85-3.3-1.22-1.69-.72-2.89-1.41-3.58-2.06-.39-.34-.84-.83-1.35-1.48-.88-1.12-1.32-2.58-1.32-4.39,0-1.58.47-2.97,1.4-4.16.95-1.21,2.24-2.14,3.86-2.79,1.63-.66,3.44-1,5.44-1s3.72.29,5.31.86c1.59.56,2.93,1.34,4.02,2.35,1.08,1,1.86,2.16,2.34,3.46l-3.86.55c-.27-.72-.78-1.4-1.52-2.02-.73-.63-1.63-1.14-2.72-1.51-1.08-.38-2.24-.58-3.48-.58s-2.41.21-3.43.64c-1,.41-1.79.99-2.36,1.73-.58.72-.86,1.54-.86,2.46,0,1.15.35,2.13,1.04,2.92s1.54,1.4,2.54,1.82c.85.37,1.51.64,1.98.82s1.13.41,1.96.69c1.78.59,3.14,1.1,4.09,1.53,1.93.86,3.36,1.69,4.29,2.5.63.55,1.19,1.14,1.7,1.77,1.1,1.34,1.65,2.98,1.65,4.92s-.58,3.6-1.73,4.96c-2.24,2.58-5.85,3.88-10.85,3.88-3.13,0-5.76-.69-7.88-2.08-2.1-1.4-3.66-3.34-4.68-5.8l4.32-.69Z"></path><path class="cls-1" d="M256.91,31.84h9.1c7.65,0,12.7-1.84,15.15-5.52,1.24-1.91,1.85-4.09,1.85-6.54,0-3.74-1.41-6.64-4.24-8.7-2.8-2.09-7.05-3.14-12.76-3.14h-9.1v23.89ZM285.34,66.01l-18.94-27.86h-9.49v27.86h-6.98V1.72h16.07c4.77,0,8.98.72,12.63,2.16,3.65,1.44,6.49,3.53,8.52,6.27,2.06,2.71,3.09,5.92,3.09,9.63,0,2.91-.66,5.61-1.99,8.08-1.32,2.44-3.21,4.5-5.65,6.18-2.41,1.65-5.23,2.77-8.43,3.36l19.16,28.61h-7.99Z"></path><path class="cls-1" d="M139.25,31.84h9.1c11.33,0,17-4.02,17-12.05,0-3.77-1.41-6.68-4.24-8.74-2.83-2.06-7.08-3.09-12.76-3.09h-9.1v23.89ZM132.27,1.72h16.07c4.45,0,8.35.59,11.7,1.77,3.36,1.15,6.05,2.8,8.08,4.95,2.03,2.15,3.37,4.68,4.02,7.6.24,1.41.35,3,.35,4.77,0,1.97-.5,4.05-1.5,6.23-1,2.15-2.43,4.05-4.28,5.7-4.09,3.62-10.22,5.43-18.37,5.43h-9.1v27.86h-6.98V1.72Z"></path><path class="cls-1" d="M102.7,1.72h7.11v35.81c0,6.18-.91,11.51-2.74,15.98-1.83,4.45-4.47,7.86-7.95,10.24-3.44,2.36-7.57,3.53-12.36,3.53-4.15,0-7.96-.96-11.44-2.87-3.44-1.94-6.24-5.12-8.39-9.54-2.15-4.45-3.22-10.23-3.22-17.35V1.72h7.15v35.81c0,9.33,2.15,15.94,6.45,19.83,2.71,2.44,5.86,3.67,9.45,3.67,3.09,0,5.83-.85,8.21-2.56,2.41-1.74,4.3-4.36,5.65-7.86,1.38-3.53,2.08-7.89,2.08-13.07V1.72Z"></path><path class="cls-1" d="M7.51,50.21c.41,1.74,1.32,3.44,2.74,5.12,1.44,1.68,3.22,3.05,5.34,4.11,2.12,1.06,4.39,1.59,6.8,1.59s4.9-.49,7.11-1.46c2.24-.97,4.03-2.33,5.39-4.06,1.35-1.74,2.03-3.69,2.03-5.87,0-5.77-4.75-10.55-14.26-14.35l-3-1.19c-2.36-.88-4.27-1.69-5.74-2.43-2.94-1.44-5.02-2.81-6.23-4.11-.68-.68-1.46-1.66-2.34-2.96-1.53-2.24-2.3-5.15-2.3-8.74,0-3.15.81-5.92,2.43-8.3,1.65-2.41,3.89-4.27,6.71-5.56,2.83-1.32,5.98-1.99,9.45-1.99s6.46.57,9.23,1.72c2.77,1.12,5.09,2.68,6.98,4.68,1.88,2,3.24,4.3,4.06,6.89l-6.71,1.1c-.47-1.44-1.35-2.78-2.65-4.02-1.27-1.27-2.84-2.27-4.72-3-1.88-.77-3.9-1.15-6.05-1.15s-4.19.43-5.96,1.28c-1.74.82-3.11,1.97-4.11,3.44-1,1.44-1.5,3.08-1.5,4.9,0,2.3.6,4.24,1.81,5.83s2.68,2.8,4.42,3.62c1.47.74,2.62,1.28,3.44,1.63s1.96.81,3.4,1.37c3.09,1.18,5.46,2.19,7.11,3.05,3.36,1.71,5.84,3.37,7.46,4.99,1.09,1.09,2.08,2.27,2.96,3.53,1.91,2.68,2.87,5.95,2.87,9.8s-1,7.18-3,9.89c-3.89,5.15-10.17,7.73-18.86,7.73-5.45,0-10.01-1.38-13.69-4.15-3.65-2.8-6.36-6.65-8.12-11.57l7.51-1.37Z"></path><path class="cls-2" d="M217.68,66.01c-.46,0-.93-.02-1.39-.07-4.5-.45-7.43-2.98-9.79-5.01-2.02-1.74-3.62-3.12-5.92-3.35-3.6-.36-7.9,2.09-12.79,7.28l-5.1-4.8c6.46-6.86,12.72-10.03,18.59-9.45,4.5.45,7.44,2.98,9.79,5.02,2.02,1.74,3.61,3.12,5.91,3.35,3.6.37,7.9-2.09,12.79-7.28l5.1,4.8c-5.95,6.32-11.73,9.52-17.2,9.52Z"></path><path class="cls-2" d="M217.68,41.6c-.46,0-.93-.02-1.39-.07-4.5-.45-7.43-2.98-9.79-5.01-2.02-1.74-3.62-3.12-5.92-3.35-3.59-.36-7.9,2.09-12.79,7.28l-5.1-4.8c6.46-6.86,12.72-10.03,18.59-9.45,4.5.45,7.44,2.98,9.79,5.02,2.02,1.74,3.61,3.12,5.92,3.35,3.61.37,7.9-2.09,12.79-7.28l5.1,4.8c-5.95,6.32-11.73,9.52-17.2,9.52Z"></path><path class="cls-2" d="M217.68,17.19c-.46,0-.93-.02-1.39-.07-4.5-.45-7.43-2.98-9.79-5.01-2.02-1.74-3.62-3.12-5.92-3.35-3.6-.35-7.9,2.09-12.79,7.28l-5.1-4.8c6.46-6.86,12.72-10.04,18.59-9.45,4.51.45,7.44,2.98,9.79,5.02,2.02,1.74,3.61,3.12,5.92,3.35,3.6.36,7.9-2.09,12.79-7.28l5.1,4.8c-5.95,6.32-11.73,9.52-17.2,9.52Z"></path></svg> 